<?xml version="1.0" encoding="UTF-8"?>
<svg id="Layer_1" xmlns="http://www.w3.org/2000/svg" version="1.1" viewBox="0 0 256.46 76.46">
  <!-- Generator: Adobe Illustrator 30.0.0, SVG Export Plug-In . SVG Version: 2.1.1 Build 123)  -->
  <defs>
    <style>
      .st0 {
        fill: #0762e5;
      }
    </style>
  </defs>
  <g>
    <path d="M83.97,33.23c.4,1.77,1.63,2.62,3.69,2.62s3-.91,3-2.24c0-1.45-.8-2.16-3.76-2.86-4.25-1.02-5.44-2.55-5.44-4.82,0-2.74,2.02-4.71,5.82-4.71,4.19,0,5.88,2.33,6.11,4.67h-3.1c-.21-1.17-.89-2.31-3.1-2.31-1.63,0-2.58.71-2.58,2.02s.77,1.8,3.5,2.45c4.73,1.14,5.7,2.94,5.7,5.2,0,2.9-2.16,4.98-6.38,4.98s-6.19-2.14-6.57-4.99h3.1Z"/>
    <path d="M106.62,31.83c0,3.66-2.14,6.46-5.95,6.46s-5.85-2.72-5.85-6.4,2.2-6.47,6-6.47c3.52,0,5.8,2.55,5.8,6.41ZM97.81,31.85c0,2.48,1.12,4.07,2.93,4.07s2.87-1.56,2.87-4.05c0-2.64-1.04-4.08-2.92-4.08s-2.88,1.4-2.88,4.07Z"/>
    <path d="M118.5,34.1c-.45,2.07-1.88,4.19-5.33,4.19-3.64,0-5.63-2.58-5.63-6.35,0-3.58,2.11-6.51,5.79-6.51,3.9,0,5.07,2.82,5.17,4.28h-2.88c-.24-1.08-.87-1.91-2.34-1.91-1.75,0-2.74,1.53-2.74,4.05,0,2.68,1.01,4.1,2.7,4.1,1.28,0,1.99-.73,2.36-1.84h2.9Z"/>
    <path d="M119.9,20.51h2.94v2.91h-2.94v-2.91ZM119.9,25.71h2.94v12.29h-2.94v-12.29Z"/>
    <path d="M127.32,32.46c0,1.86.93,3.46,2.74,3.46,1.58,0,2.05-.71,2.4-1.51h2.95c-.45,1.53-1.77,3.87-5.43,3.87-3.95,0-5.63-3.07-5.63-6.27,0-3.79,1.91-6.6,5.75-6.6,4.09,0,5.47,3.1,5.47,6.01,0,.4,0,.69-.04,1.03h-8.22ZM132.62,30.57c-.02-1.63-.74-2.97-2.53-2.97s-2.54,1.25-2.7,2.97h5.23Z"/>
    <path d="M148.06,20.51v14.08c0,1.13,0,2.26.02,3.41h-2.83c-.06-.35-.12-1.09-.14-1.44-.59,1.07-1.7,1.73-3.58,1.73-3.1,0-5.04-2.52-5.04-6.32s2.08-6.54,5.5-6.54c1.89,0,2.83.71,3.12,1.31v-6.22h2.94ZM139.53,31.88c0,2.59,1.08,3.99,2.82,3.99,2.5,0,2.88-2.01,2.88-4.09,0-2.31-.39-3.95-2.77-3.95-1.9,0-2.93,1.5-2.93,4.05Z"/>
    <path d="M159.93,34.99c0,1.15.09,2.69.17,3.01h-2.81c-.09-.25-.17-.88-.18-1.34-.44.73-1.31,1.63-3.54,1.63-2.91,0-4.15-1.93-4.15-3.82,0-2.78,2.2-4.06,5.78-4.06h1.85v-.85c0-.94-.32-1.96-2.12-1.96-1.63,0-1.95.75-2.13,1.66h-2.81c.18-2.02,1.41-3.85,5.05-3.83,3.16.02,4.9,1.28,4.9,4.16v5.4ZM157.06,32.27h-1.57c-2.16,0-3.1.64-3.1,2.01,0,1.02.65,1.83,1.96,1.83,2.41,0,2.71-1.67,2.71-3.5v-.35Z"/>
    <path d="M173,20.51v14.08c0,1.13,0,2.26.02,3.41h-2.83c-.06-.35-.12-1.09-.14-1.44-.59,1.07-1.7,1.73-3.58,1.73-3.09,0-5.04-2.52-5.04-6.32s2.08-6.54,5.5-6.54c1.89,0,2.83.71,3.12,1.31v-6.22h2.94ZM164.47,31.88c0,2.59,1.08,3.99,2.82,3.99,2.5,0,2.88-2.01,2.88-4.09,0-2.31-.39-3.95-2.77-3.95-1.9,0-2.93,1.5-2.93,4.05Z"/>
    <path d="M184.43,38l-5.84-16.54h3.3l2.59,7.85c.77,2.35,1.43,4.48,1.81,6.11h.05c.34-1.48,1.08-3.68,1.88-6.04l2.71-7.91h3.14l-6.01,16.54h-3.62Z"/>
    <path d="M203.06,34.99c0,1.15.09,2.69.17,3.01h-2.81c-.09-.25-.17-.88-.18-1.34-.44.73-1.31,1.63-3.54,1.63-2.91,0-4.15-1.93-4.15-3.82,0-2.78,2.2-4.06,5.78-4.06h1.85v-.85c0-.94-.32-1.96-2.12-1.96-1.63,0-1.95.75-2.13,1.66h-2.81c.18-2.02,1.41-3.85,5.05-3.83,3.16.02,4.9,1.28,4.9,4.16v5.4ZM200.19,32.27h-1.57c-2.16,0-3.1.64-3.1,2.01,0,1.02.65,1.83,1.96,1.83,2.41,0,2.71-1.67,2.71-3.5v-.35Z"/>
    <path d="M205.37,29.04c0-1.39,0-2.43-.02-3.34h2.89c.04.3.08,1.43.08,2.28.57-1.49,1.92-2.53,3.97-2.56v2.87c-2.46-.02-3.97.87-3.97,4.15v5.56h-2.94v-8.96Z"/>
    <path d="M224.24,31.83c0,3.66-2.14,6.46-5.95,6.46s-5.85-2.72-5.85-6.4,2.2-6.47,6-6.47c3.51,0,5.8,2.55,5.8,6.41ZM215.44,31.85c0,2.48,1.12,4.07,2.93,4.07s2.87-1.56,2.87-4.05c0-2.64-1.04-4.08-2.92-4.08s-2.88,1.4-2.88,4.07Z"/>
    <path d="M225.78,28.8c0-1.05,0-2.17-.02-3.1h2.85c.06.33.1,1.33.11,1.72.44-.87,1.43-2.01,3.63-2.01,2.39,0,4.04,1.58,4.04,4.73v7.85h-2.94v-7.51c0-1.54-.54-2.63-2.16-2.63-1.72,0-2.58,1.13-2.58,3.4v6.73h-2.94v-9.19Z"/>
    <path d="M238.65,20.51h2.94v2.91h-2.94v-2.91ZM238.65,25.71h2.94v12.29h-2.94v-12.29Z"/>
    <path d="M243.86,38v-17.49h2.94v17.49h-2.94Z"/>
  </g>
  <g>
    <path d="M82.22,56.31v-9.89h1.22v9.89h-1.22Z"/>
    <path d="M88.86,59.92c-1.13,0-2.04-.2-2.71-.59s-1.01-.95-1.01-1.67c0-.39.13-.71.39-.98.26-.27.61-.47,1.04-.6-.19-.12-.35-.26-.48-.44-.12-.18-.19-.4-.19-.66,0-.33.11-.62.32-.85.21-.23.48-.41.8-.53-.41-.18-.75-.45-1.02-.82-.27-.37-.41-.83-.41-1.39,0-.83.3-1.46.9-1.9s1.36-.66,2.29-.66c.19,0,.37.01.53.03.16.02.31.05.46.08h3.38v.82h-.76l-1.41-.13c.28.2.51.45.67.76s.25.64.25.98c0,.83-.3,1.46-.89,1.9-.59.44-1.34.66-2.25.66-.16,0-.31,0-.47-.02s-.31-.03-.47-.06c-.26.09-.46.22-.59.38-.14.16-.2.33-.2.51,0,.25.1.43.3.53.2.1.46.16.77.16h2.09c.87,0,1.54.18,2,.54.46.36.7.83.7,1.42,0,.76-.36,1.38-1.08,1.84-.72.46-1.7.69-2.95.69ZM88.9,59.04c.67,0,1.21-.08,1.62-.24.41-.16.71-.36.9-.6.19-.24.28-.49.28-.74,0-.47-.18-.78-.54-.93-.36-.15-.83-.23-1.39-.23h-2.43c-.31.1-.55.26-.73.46s-.27.45-.27.73c0,.51.23.9.69,1.15.46.26,1.08.38,1.88.38ZM88.76,53.09c.57,0,1.03-.14,1.39-.42s.54-.7.54-1.26-.18-1.03-.53-1.33-.81-.45-1.38-.45-1.04.14-1.41.43c-.37.29-.56.71-.56,1.28,0,.6.18,1.04.55,1.32.37.28.83.42,1.38.42Z"/>
    <path d="M94.91,56.31v-11.14h1.17v11.14h-1.17Z"/>
    <path d="M102.1,56.43c-.74,0-1.41-.13-2.02-.39s-1.1-.67-1.46-1.23-.54-1.28-.54-2.17c0-.77.16-1.45.47-2.02.31-.57.75-1.01,1.31-1.33s1.21-.47,1.96-.47c.65,0,1.21.14,1.69.41.48.27.85.65,1.12,1.13.27.48.4,1.05.4,1.69v.64h-5.71v.14c0,.86.25,1.53.76,2.01s1.2.72,2.07.72c.4,0,.77-.03,1.11-.09.35-.06.69-.15,1.04-.29l.25.83c-.31.12-.68.22-1.11.3s-.89.11-1.35.11ZM99.34,51.88l4.43-.02c0-.39-.07-.75-.2-1.08-.14-.33-.35-.61-.65-.82-.3-.21-.69-.31-1.18-.31-.66,0-1.2.2-1.62.6s-.68.94-.77,1.62Z"/>
    <path d="M108.87,56.43c-.51,0-.98-.04-1.4-.12s-.8-.19-1.11-.32l.29-.86c.32.14.65.24,1,.32s.73.12,1.14.12c.57,0,1.02-.1,1.35-.3.33-.2.5-.5.5-.91,0-.33-.13-.6-.39-.79-.26-.19-.67-.37-1.24-.53l-.53-.16c-.7-.21-1.23-.48-1.57-.81-.35-.33-.52-.73-.52-1.22,0-.62.26-1.11.78-1.48.52-.37,1.18-.56,1.99-.56.37,0,.76.03,1.17.09.41.06.79.17,1.14.31l-.27.85c-.34-.15-.66-.25-.96-.31-.3-.06-.61-.09-.94-.09-.57,0-.99.1-1.28.31-.29.21-.43.48-.43.82,0,.29.11.53.33.7.22.17.64.35,1.27.53l.51.14c.7.19,1.23.45,1.6.79.36.34.54.78.54,1.31,0,.63-.26,1.14-.76,1.55-.51.4-1.24.6-2.19.6Z"/>
    <path d="M114.48,47.03c-.21,0-.41-.07-.57-.2-.16-.14-.25-.31-.25-.53s.08-.42.24-.56c.16-.14.34-.21.56-.21s.4.07.56.2c.16.14.24.32.24.57,0,.22-.08.4-.24.53-.16.14-.34.2-.54.2ZM113.87,56.31v-7.38h1.19v7.38h-1.19Z"/>
    <path d="M119.62,56.43c-.76,0-1.39-.19-1.89-.58-.5-.39-.75-.91-.75-1.55,0-.77.33-1.36.98-1.75.65-.39,1.51-.59,2.57-.59h1.61v-.57c0-.62-.16-1.05-.48-1.3-.32-.25-.74-.38-1.26-.38-.31,0-.66.05-1.07.14-.41.09-.86.27-1.34.52l-.46-.8c.53-.26,1.02-.45,1.48-.57.45-.12.95-.18,1.5-.18s1.03.08,1.45.25.76.45,1.01.84c.25.39.37.92.37,1.59v4.8h-.93l-.19-.89h-.03c-.33.36-.71.61-1.15.78-.44.16-.92.24-1.44.24ZM119.91,55.6c.38,0,.79-.09,1.21-.28.42-.18.77-.47,1.05-.86v-1.73l-1.34.03c-.93.02-1.59.17-2,.45-.4.28-.6.62-.6,1.03,0,.49.17.84.5,1.04s.73.31,1.18.31Z"/>
    <path d="M132.23,56.43c-.57,0-1.11-.14-1.64-.42s-.96-.7-1.29-1.26-.5-1.27-.5-2.13c0-1.16.32-2.09.95-2.78.63-.69,1.52-1.04,2.65-1.04.42,0,.82.06,1.19.18.37.12.71.3,1,.54v-4.38h1.19v11.14h-.99l-.15-.75h-.05c-.28.28-.61.5-.97.65-.36.15-.83.23-1.39.23ZM132.53,55.57c.45,0,.85-.08,1.21-.25.35-.17.63-.4.85-.69v-4.1c-.25-.27-.55-.48-.89-.63-.35-.15-.7-.22-1.06-.22-.44,0-.86.09-1.27.28s-.73.49-.99.92c-.25.42-.38.99-.38,1.7s.12,1.29.37,1.73c.24.44.56.76.95.96.39.2.79.3,1.21.3Z"/>
    <path d="M141.65,56.43c-.74,0-1.41-.13-2.02-.39-.61-.26-1.1-.67-1.46-1.23-.36-.56-.54-1.28-.54-2.17,0-.77.16-1.45.47-2.02.31-.57.75-1.01,1.31-1.33s1.21-.47,1.96-.47c.65,0,1.21.14,1.69.41.48.27.86.65,1.12,1.13.27.48.4,1.05.4,1.69v.64h-5.71v.14c0,.86.25,1.53.76,2.01.51.48,1.2.72,2.07.72.4,0,.77-.03,1.11-.09.34-.06.69-.15,1.04-.29l.25.83c-.31.12-.68.22-1.11.3s-.89.11-1.35.11ZM138.9,51.88l4.43-.02c0-.39-.07-.75-.2-1.08-.14-.33-.35-.61-.65-.82-.3-.21-.69-.31-1.18-.31-.66,0-1.2.2-1.62.6s-.68.94-.77,1.62Z"/>
    <path d="M150.27,56.31v-9.89h3.31c.97,0,1.85.18,2.62.53.77.35,1.38.88,1.83,1.58.45.7.67,1.58.67,2.62,0,.95-.15,1.76-.45,2.42-.3.66-.72,1.19-1.25,1.59-.53.4-1.14.7-1.83.88-.68.18-1.41.27-2.18.27h-2.72ZM151.49,55.38h1.34c.57,0,1.12-.06,1.66-.19.54-.13,1.02-.34,1.46-.65.44-.31.78-.74,1.04-1.29s.39-1.26.39-2.1c0-1.21-.38-2.15-1.13-2.81s-1.75-.99-2.98-.99h-1.78v8.04Z"/>
    <path d="M161.46,47.03c-.21,0-.41-.07-.57-.2-.16-.14-.25-.31-.25-.53s.08-.42.24-.56c.16-.14.34-.21.56-.21s.4.07.56.2c.16.14.24.32.24.57,0,.22-.08.4-.24.53-.16.14-.34.2-.54.2ZM160.85,56.31v-7.38h1.19v7.38h-1.19Z"/>
    <path d="M167.76,56.43c-.7,0-1.33-.14-1.89-.42-.56-.28-1-.7-1.32-1.26-.32-.56-.48-1.24-.48-2.05s.17-1.53.5-2.1.79-1.02,1.36-1.32c.57-.3,1.21-.46,1.91-.46s1.33.14,1.89.42c.55.28.99.7,1.32,1.25.32.55.48,1.23.48,2.05s-.17,1.53-.49,2.11c-.33.58-.78,1.02-1.34,1.33-.57.3-1.21.46-1.92.46ZM167.81,55.57c.43,0,.83-.09,1.21-.28.37-.18.68-.49.91-.93.23-.43.35-1.02.35-1.75,0-.69-.12-1.25-.36-1.69-.24-.43-.55-.75-.93-.95-.38-.2-.78-.3-1.21-.3s-.82.09-1.2.28c-.38.19-.69.5-.93.93-.24.43-.36,1-.36,1.73s.12,1.27.37,1.7c.24.43.56.75.94.95.38.2.79.3,1.21.3Z"/>
    <path d="M175.4,56.43c-.51,0-.98-.04-1.4-.12s-.8-.19-1.11-.32l.29-.86c.32.14.65.24,1,.32.35.08.73.12,1.14.12.57,0,1.02-.1,1.35-.3.33-.2.5-.5.5-.91,0-.33-.13-.6-.39-.79-.26-.19-.67-.37-1.24-.53l-.53-.16c-.7-.21-1.23-.48-1.57-.81-.35-.33-.52-.73-.52-1.22,0-.62.26-1.11.78-1.48.52-.37,1.18-.56,1.99-.56.37,0,.76.03,1.17.09.41.06.79.17,1.14.31l-.27.85c-.34-.15-.66-.25-.96-.31-.3-.06-.61-.09-.94-.09-.57,0-.99.1-1.28.31-.29.21-.43.48-.43.82,0,.29.11.53.33.7.22.17.64.35,1.27.53l.51.14c.7.19,1.23.45,1.6.79.36.34.54.78.54,1.31,0,.63-.25,1.14-.76,1.55-.51.4-1.24.6-2.19.6Z"/>
    <path d="M185.98,58.38c-.42-.54-.82-1.13-1.21-1.75-.38-.62-.7-1.31-.94-2.06-.24-.75-.37-1.58-.37-2.48s.12-1.74.37-2.51c.25-.77.57-1.48.96-2.12s.8-1.19,1.21-1.66l.7.44c-.62.83-1.13,1.72-1.51,2.68s-.58,2.02-.58,3.18.18,2.17.54,3.09c.36.92.87,1.86,1.55,2.83l-.73.38Z"/>
    <path d="M188.7,56.31v-9.89h1.22v9.89h-1.22Z"/>
    <path d="M194.48,56.43c-.51,0-.98-.04-1.4-.12s-.8-.19-1.11-.32l.29-.86c.32.14.65.24,1,.32.35.08.73.12,1.14.12.57,0,1.02-.1,1.35-.3.33-.2.5-.5.5-.91,0-.33-.13-.6-.39-.79-.26-.19-.67-.37-1.24-.53l-.53-.16c-.7-.21-1.23-.48-1.57-.81-.35-.33-.52-.73-.52-1.22,0-.62.26-1.11.78-1.48.52-.37,1.18-.56,1.99-.56.37,0,.76.03,1.17.09.41.06.79.17,1.14.31l-.27.85c-.34-.15-.66-.25-.96-.31-.3-.06-.61-.09-.94-.09-.57,0-.99.1-1.28.31-.29.21-.43.48-.43.82,0,.29.11.53.33.7.22.17.64.35,1.27.53l.51.14c.7.19,1.23.45,1.6.79.36.34.54.78.54,1.31,0,.63-.25,1.14-.76,1.55-.51.4-1.24.6-2.19.6Z"/>
    <path d="M199.28,56.31v-7.38h.85l.24,1.48c.19-.46.51-.84.97-1.14.45-.3.97-.45,1.55-.45.28,0,.52.02.72.07.2.05.37.1.5.15l-.24.96c-.14-.05-.29-.1-.45-.14-.17-.04-.36-.06-.59-.06-.65,0-1.2.21-1.67.64-.46.42-.7,1.06-.7,1.91v3.97h-1.19Z"/>
    <path d="M207.25,56.43c-.76,0-1.39-.19-1.89-.58-.5-.39-.75-.91-.75-1.55,0-.77.33-1.36.98-1.75.65-.39,1.51-.59,2.57-.59h1.61v-.57c0-.62-.16-1.05-.48-1.3-.32-.25-.74-.38-1.26-.38-.31,0-.66.05-1.07.14-.41.09-.86.27-1.34.52l-.46-.8c.53-.26,1.02-.45,1.48-.57.45-.12.95-.18,1.5-.18s1.03.08,1.45.25.76.45,1.01.84c.25.39.37.92.37,1.59v4.8h-.93l-.19-.89h-.03c-.33.36-.71.61-1.15.78-.44.16-.92.24-1.44.24ZM207.54,55.6c.38,0,.79-.09,1.21-.28.42-.18.77-.47,1.05-.86v-1.73l-1.34.03c-.93.02-1.59.17-2,.45-.4.28-.6.62-.6,1.03,0,.49.17.84.5,1.04s.73.31,1.18.31Z"/>
    <path d="M216.78,56.43c-.74,0-1.41-.13-2.02-.39-.61-.26-1.1-.67-1.46-1.23-.36-.56-.54-1.28-.54-2.17,0-.77.16-1.45.47-2.02.31-.57.75-1.01,1.31-1.33s1.21-.47,1.96-.47c.65,0,1.21.14,1.69.41.48.27.86.65,1.12,1.13.27.48.4,1.05.4,1.69v.64h-5.71v.14c0,.86.25,1.53.76,2.01.51.48,1.2.72,2.07.72.4,0,.77-.03,1.11-.09.34-.06.69-.15,1.04-.29l.25.83c-.31.12-.68.22-1.11.3s-.89.11-1.35.11ZM214.03,51.88l4.43-.02c0-.39-.07-.75-.2-1.08-.14-.33-.35-.61-.65-.82-.3-.21-.69-.31-1.18-.31-.66,0-1.2.2-1.62.6s-.68.94-.77,1.62Z"/>
    <path d="M221.65,56.31v-11.14h1.17v11.14h-1.17Z"/>
    <path d="M226.1,47.03c-.21,0-.41-.07-.57-.2-.16-.14-.25-.31-.25-.53s.08-.42.24-.56c.16-.14.34-.21.56-.21s.4.07.56.2c.16.14.24.32.24.57,0,.22-.08.4-.24.53-.16.14-.34.2-.54.2ZM225.49,56.31v-7.38h1.19v7.38h-1.19Z"/>
    <path d="M231.84,56.31c-1.45,0-2.17-.61-2.17-1.84v-4.71h-1.33v-.83h1.33v-2.35h1.17v2.35h2.51v.83h-2.51v4.55c0,.43.11.72.33.87s.51.23.88.23c.28,0,.56-.03.84-.08.28-.05.51-.11.7-.17l.19.83c-.23.07-.51.14-.84.21-.33.07-.7.1-1.1.1Z"/>
    <path d="M237.38,56.43c-.76,0-1.39-.19-1.89-.58-.5-.39-.75-.91-.75-1.55,0-.77.33-1.36.98-1.75.65-.39,1.51-.59,2.57-.59h1.61v-.57c0-.62-.16-1.05-.48-1.3-.32-.25-.74-.38-1.26-.38-.31,0-.66.05-1.07.14-.41.09-.86.27-1.34.52l-.46-.8c.53-.26,1.02-.45,1.48-.57.45-.12.95-.18,1.5-.18s1.03.08,1.45.25.76.45,1.01.84c.25.39.37.92.37,1.59v4.8h-.93l-.19-.89h-.03c-.33.36-.71.61-1.15.78-.44.16-.92.24-1.44.24ZM237.67,55.6c.38,0,.79-.09,1.21-.28.42-.18.77-.47,1.05-.86v-1.73l-1.34.03c-.93.02-1.59.17-2,.45-.4.28-.6.62-.6,1.03,0,.49.17.84.5,1.04s.73.31,1.18.31Z"/>
    <path d="M243.5,58.38l-.68-.44c.62-.84,1.13-1.73,1.51-2.68.38-.95.58-2.01.58-3.17,0-.77-.08-1.49-.24-2.13-.16-.65-.39-1.28-.7-1.89-.31-.61-.7-1.24-1.16-1.88l.73-.39c.43.52.83,1.1,1.21,1.73.38.63.69,1.33.93,2.08s.37,1.58.37,2.48-.12,1.72-.37,2.5c-.25.78-.57,1.49-.95,2.13-.39.64-.79,1.19-1.22,1.66Z"/>
  </g>
  <g>
    <polygon class="st0" points="23.5 49.13 23.82 14.78 28.21 14.81 27.9 49.16 23.5 49.13"/>
    <path class="st0" d="M30.94,49.16l.31-28.35h4.07l-.31,28.06c0,.16-.13.29-.29.29h-3.78Z"/>
    <polygon class="st0" points="16.51 48.94 16.82 8.69 20.9 8.6 20.58 48.85 16.51 48.94"/>
    <rect class="st0" x="38.59" y="37.13" width="4.07" height="33.55"/>
    <polygon class="st0" points="57.75 49.16 58.06 14.31 53.85 14.31 53.37 49.16 57.75 49.16"/>
    <polygon class="st0" points="49.88 48.85 50.19 20.81 46.04 20.81 45.81 48.85 49.88 48.85"/>
    <polygon class="st0" points="64.74 49.39 65.23 8.69 60.99 8.59 60.67 49.34 64.74 49.39"/>
    <path class="st0" d="M40.42,74.49c-.15,0-.3-.01-.45-.04-.22-.04-.47-.12-.73-.28h-.02s-.06-.05-.06-.05c-.07-.05-.14-.1-.21-.16l-.18-.14c-.22-.17-5.51-4.26-10.9-9.27-11.36-10.57-11.36-14.42-11.36-15.69h4.07c0,4.03,11.43,14.72,19.99,21.42,7.24-4.91,20.1-16.32,20.1-20.93h4.07c0,3.33-3.04,7.84-9.3,13.8-4.5,4.29-10.01,8.6-13.13,10.64-.45.29-1.09.72-1.9.72Z"/>
    <path class="st0" d="M39.16,66.44l-.48-1.03c-.98-.73-4.05-3.07-7.17-5.83-7.1-6.29-8.01-9.04-8.01-10.73h4.38c0,.08.08,1.94,6.62,7.74,2.27,2.01,4.56,3.82,5.93,4.88,1.83-1.21,4.88-3.43,7.66-5.88,4.16-3.68,5.26-5.77,5.26-6.42h4.38c0,5.46-12.16,13.89-15.06,15.82l.04.68-3.57.78ZM42.39,63.13c.06.12.12.24.15.36-.04-.12-.09-.24-.15-.36h0Z"/>
    <path class="st0" d="M40.57,58.35c-.26,0-.53-.05-.79-.14-2.7-1-8.84-5.57-8.84-9.36h4.07c0,1.13,2.91,3.99,5.22,5.32,3.18-2.06,5.57-4.49,5.57-5.32h4.07c0,3.43-5.37,7.2-7.57,8.6-.13.2-.3.37-.51.52-.36.25-.79.38-1.23.38Z"/>
  </g>
</svg>