<?xml version="1.0" encoding="UTF-8" standalone="no"?>
<!DOCTYPE svg PUBLIC "-//W3C//DTD SVG 1.1//EN" "http://www.w3.org/Graphics/SVG/1.1/DTD/svg11.dtd">
<svg width="100%" height="100%" viewBox="0 0 203 96" version="1.1" xmlns="http://www.w3.org/2000/svg" xmlns:xlink="http://www.w3.org/1999/xlink" xml:space="preserve" xmlns:serif="http://www.serif.com/" style="fill-rule:evenodd;clip-rule:evenodd;stroke-linejoin:round;stroke-miterlimit:2;">
    <g transform="matrix(1,0,0,1,-4,0)">
        <g transform="matrix(0.90276,0,0,0.90276,2.995799,4.361357)">
            <text x="77px" y="28.28px" style="font-family:'HelveticaNeue-Bold', 'Helvetica Neue';font-weight:700;font-size:20px;">Departamento</text>
            <text x="77px" y="44.453px" style="font-family:'HelveticaNeue-Bold', 'Helvetica Neue';font-weight:700;font-size:20px;">var<tspan x="106.3px 118.52px " y="44.453px 44.453px ">on</tspan>il</text>
            <g transform="matrix(20,0,0,20,201.38,60.626181)">
            </g>
            <text x="77px" y="60.626px" style="font-family:'HelveticaNeue-Bold', 'Helvetica Neue';font-weight:700;font-size:20px;">inter<tspan x="120.68px 132.54px " y="60.626px 60.626px ">na</tspan>cional</text>
        </g>
    </g>
    <g transform="matrix(1,0,0,1,-4,0)">
        <g transform="matrix(0.744059,0,0,0.744059,11.974258,31.483089)">
            <rect x="82.22" y="46.42" width="1.22" height="9.89" style="fill-rule:nonzero;"/>
        </g>
        <g transform="matrix(0.744059,0,0,0.744059,11.974258,31.483089)">
            <path d="M88.86,59.92C87.73,59.92 86.82,59.72 86.15,59.33C85.48,58.94 85.14,58.38 85.14,57.66C85.14,57.27 85.27,56.95 85.53,56.68C85.79,56.41 86.14,56.21 86.57,56.08C86.38,55.96 86.22,55.82 86.09,55.64C85.97,55.46 85.9,55.24 85.9,54.98C85.9,54.65 86.01,54.36 86.22,54.13C86.43,53.9 86.7,53.72 87.02,53.6C86.61,53.42 86.27,53.15 86,52.78C85.73,52.41 85.59,51.95 85.59,51.39C85.59,50.56 85.89,49.93 86.49,49.49C87.09,49.05 87.85,48.83 88.78,48.83C88.97,48.83 89.15,48.84 89.31,48.86C89.47,48.88 89.62,48.91 89.77,48.94L93.15,48.94L93.15,49.76L92.39,49.76L90.98,49.63C91.26,49.83 91.49,50.08 91.65,50.39C91.81,50.7 91.9,51.03 91.9,51.37C91.9,52.2 91.6,52.83 91.01,53.27C90.42,53.71 89.67,53.93 88.76,53.93C88.6,53.93 88.45,53.93 88.29,53.91C88.13,53.89 87.98,53.88 87.82,53.85C87.56,53.94 87.36,54.07 87.23,54.23C87.09,54.39 87.03,54.56 87.03,54.74C87.03,54.99 87.13,55.17 87.33,55.27C87.53,55.37 87.79,55.43 88.1,55.43L90.19,55.43C91.06,55.43 91.73,55.61 92.19,55.97C92.65,56.33 92.89,56.8 92.89,57.39C92.89,58.15 92.53,58.77 91.81,59.23C91.09,59.69 90.11,59.92 88.86,59.92ZM88.9,59.04C89.57,59.04 90.11,58.96 90.52,58.8C90.93,58.64 91.23,58.44 91.42,58.2C91.61,57.96 91.7,57.71 91.7,57.46C91.7,56.99 91.52,56.68 91.16,56.53C90.8,56.38 90.33,56.3 89.77,56.3L87.34,56.3C87.03,56.4 86.79,56.56 86.61,56.76C86.43,56.96 86.34,57.21 86.34,57.49C86.34,58 86.57,58.39 87.03,58.64C87.49,58.9 88.11,59.02 88.91,59.02L88.9,59.04ZM88.76,53.09C89.33,53.09 89.79,52.95 90.15,52.67C90.51,52.39 90.69,51.97 90.69,51.41C90.69,50.85 90.51,50.38 90.16,50.08C89.81,49.78 89.35,49.63 88.78,49.63C88.21,49.63 87.74,49.77 87.37,50.06C87,50.35 86.81,50.77 86.81,51.34C86.81,51.94 86.99,52.38 87.36,52.66C87.73,52.94 88.19,53.08 88.74,53.08L88.76,53.09Z" style="fill-rule:nonzero;"/>
        </g>
        <g transform="matrix(0.744059,0,0,0.744059,11.974258,31.483089)">
            <rect x="94.91" y="45.17" width="1.17" height="11.14" style="fill-rule:nonzero;"/>
        </g>
        <g transform="matrix(0.744059,0,0,0.744059,11.974258,31.483089)">
            <path d="M102.1,56.43C101.36,56.43 100.69,56.3 100.08,56.04C99.47,55.78 98.98,55.37 98.62,54.81C98.26,54.25 98.08,53.53 98.08,52.64C98.08,51.87 98.24,51.19 98.55,50.62C98.86,50.05 99.3,49.61 99.86,49.29C100.42,48.97 101.07,48.82 101.82,48.82C102.47,48.82 103.03,48.96 103.51,49.23C103.99,49.5 104.36,49.88 104.63,50.36C104.9,50.84 105.03,51.41 105.03,52.05L105.03,52.69L99.32,52.69L99.32,52.83C99.32,53.69 99.57,54.36 100.08,54.84C100.59,55.32 101.28,55.56 102.15,55.56C102.55,55.56 102.92,55.53 103.26,55.47C103.61,55.41 103.95,55.32 104.3,55.18L104.55,56.01C104.24,56.13 103.87,56.23 103.44,56.31C103.01,56.39 102.55,56.42 102.09,56.42L102.1,56.43ZM99.34,51.88L103.77,51.86C103.77,51.47 103.7,51.11 103.57,50.78C103.43,50.45 103.22,50.17 102.92,49.96C102.62,49.75 102.23,49.65 101.74,49.65C101.08,49.65 100.54,49.85 100.12,50.25C99.7,50.65 99.44,51.19 99.35,51.87L99.34,51.88Z" style="fill-rule:nonzero;"/>
        </g>
        <g transform="matrix(0.744059,0,0,0.744059,11.974258,31.483089)">
            <path d="M108.87,56.43C108.36,56.43 107.89,56.39 107.47,56.31C107.05,56.23 106.67,56.12 106.36,55.99L106.65,55.13C106.97,55.27 107.3,55.37 107.65,55.45C108,55.53 108.38,55.57 108.79,55.57C109.36,55.57 109.81,55.47 110.14,55.27C110.47,55.07 110.64,54.77 110.64,54.36C110.64,54.03 110.51,53.76 110.25,53.57C109.99,53.38 109.58,53.2 109.01,53.04L108.48,52.88C107.78,52.67 107.25,52.4 106.91,52.07C106.56,51.74 106.39,51.34 106.39,50.85C106.39,50.23 106.65,49.74 107.17,49.37C107.69,49 108.35,48.81 109.16,48.81C109.53,48.81 109.92,48.84 110.33,48.9C110.74,48.96 111.12,49.07 111.47,49.21L111.2,50.06C110.86,49.91 110.54,49.81 110.24,49.75C109.94,49.69 109.63,49.66 109.3,49.66C108.73,49.66 108.31,49.76 108.02,49.97C107.73,50.18 107.59,50.45 107.59,50.79C107.59,51.08 107.7,51.32 107.92,51.49C108.14,51.66 108.56,51.84 109.19,52.02L109.7,52.16C110.4,52.35 110.93,52.61 111.3,52.95C111.66,53.29 111.84,53.73 111.84,54.26C111.84,54.89 111.58,55.4 111.08,55.81C110.57,56.21 109.84,56.41 108.89,56.41L108.87,56.43Z" style="fill-rule:nonzero;"/>
        </g>
        <g transform="matrix(0.744059,0,0,0.744059,11.974258,31.483089)">
            <path d="M114.48,47.03C114.27,47.03 114.07,46.96 113.91,46.83C113.75,46.69 113.66,46.52 113.66,46.3C113.66,46.08 113.74,45.88 113.9,45.74C114.06,45.6 114.24,45.53 114.46,45.53C114.68,45.53 114.86,45.6 115.02,45.73C115.18,45.87 115.26,46.05 115.26,46.3C115.26,46.52 115.18,46.7 115.02,46.83C114.86,46.97 114.68,47.03 114.48,47.03ZM113.87,56.31L113.87,48.93L115.06,48.93L115.06,56.31L113.87,56.31Z" style="fill-rule:nonzero;"/>
        </g>
        <g transform="matrix(0.744059,0,0,0.744059,11.974258,31.483089)">
            <path d="M119.62,56.43C118.86,56.43 118.23,56.24 117.73,55.85C117.23,55.46 116.98,54.94 116.98,54.3C116.98,53.53 117.31,52.94 117.96,52.55C118.61,52.16 119.47,51.96 120.53,51.96L122.14,51.96L122.14,51.39C122.14,50.77 121.98,50.34 121.66,50.09C121.34,49.84 120.92,49.71 120.4,49.71C120.09,49.71 119.74,49.76 119.33,49.85C118.92,49.94 118.47,50.12 117.99,50.37L117.53,49.57C118.06,49.31 118.55,49.12 119.01,49C119.46,48.88 119.96,48.82 120.51,48.82C121.06,48.82 121.54,48.9 121.96,49.07C122.38,49.24 122.72,49.52 122.97,49.91C123.22,50.3 123.34,50.83 123.34,51.5L123.34,56.3L122.41,56.3L122.22,55.41L122.19,55.41C121.86,55.77 121.48,56.02 121.04,56.19C120.6,56.35 120.12,56.43 119.6,56.43L119.62,56.43ZM119.91,55.6C120.29,55.6 120.7,55.51 121.12,55.32C121.54,55.14 121.89,54.85 122.17,54.46L122.17,52.73L120.83,52.76C119.9,52.78 119.24,52.93 118.83,53.21C118.43,53.49 118.23,53.83 118.23,54.24C118.23,54.73 118.4,55.08 118.73,55.28C119.06,55.48 119.46,55.59 119.91,55.59L119.91,55.6Z" style="fill-rule:nonzero;"/>
        </g>
        <g transform="matrix(0.744059,0,0,0.744059,11.974258,31.483089)">
            <path d="M132.23,56.43C131.66,56.43 131.12,56.29 130.59,56.01C130.06,55.73 129.63,55.31 129.3,54.75C128.97,54.19 128.8,53.48 128.8,52.62C128.8,51.46 129.12,50.53 129.75,49.84C130.38,49.15 131.27,48.8 132.4,48.8C132.82,48.8 133.22,48.86 133.59,48.98C133.96,49.1 134.3,49.28 134.59,49.52L134.59,45.14L135.78,45.14L135.78,56.28L134.79,56.28L134.64,55.53L134.59,55.53C134.31,55.81 133.98,56.03 133.62,56.18C133.26,56.33 132.79,56.41 132.23,56.41L132.23,56.43ZM132.53,55.57C132.98,55.57 133.38,55.49 133.74,55.32C134.09,55.15 134.37,54.92 134.59,54.63L134.59,50.53C134.34,50.26 134.04,50.05 133.7,49.9C133.35,49.75 133,49.68 132.64,49.68C132.2,49.68 131.78,49.77 131.37,49.96C130.96,50.15 130.64,50.45 130.38,50.88C130.13,51.3 130,51.87 130,52.58C130,53.29 130.12,53.87 130.37,54.31C130.61,54.75 130.93,55.07 131.32,55.27C131.71,55.47 132.11,55.57 132.53,55.57Z" style="fill-rule:nonzero;"/>
        </g>
        <g transform="matrix(0.744059,0,0,0.744059,11.974258,31.483089)">
            <path d="M141.65,56.43C140.91,56.43 140.24,56.3 139.63,56.04C139.02,55.78 138.53,55.37 138.17,54.81C137.81,54.25 137.63,53.53 137.63,52.64C137.63,51.87 137.79,51.19 138.1,50.62C138.41,50.05 138.85,49.61 139.41,49.29C139.97,48.97 140.62,48.82 141.37,48.82C142.02,48.82 142.58,48.96 143.06,49.23C143.54,49.5 143.92,49.88 144.18,50.36C144.45,50.84 144.58,51.41 144.58,52.05L144.58,52.69L138.87,52.69L138.87,52.83C138.87,53.69 139.12,54.36 139.63,54.84C140.14,55.32 140.83,55.56 141.7,55.56C142.1,55.56 142.47,55.53 142.81,55.47C143.15,55.41 143.5,55.32 143.85,55.18L144.1,56.01C143.79,56.13 143.42,56.23 142.99,56.31C142.56,56.39 142.1,56.42 141.64,56.42L141.65,56.43ZM138.9,51.88L143.33,51.86C143.33,51.47 143.26,51.11 143.13,50.78C142.99,50.45 142.78,50.17 142.48,49.96C142.18,49.75 141.79,49.65 141.3,49.65C140.64,49.65 140.1,49.85 139.68,50.25C139.26,50.65 139,51.19 138.91,51.87L138.9,51.88Z" style="fill-rule:nonzero;"/>
        </g>
        <g transform="matrix(0.744059,0,0,0.744059,11.974258,31.483089)">
            <path d="M150.27,56.31L150.27,46.42L153.58,46.42C154.55,46.42 155.43,46.6 156.2,46.95C156.97,47.3 157.58,47.83 158.03,48.53C158.48,49.23 158.7,50.11 158.7,51.15C158.7,52.1 158.55,52.91 158.25,53.57C157.95,54.23 157.53,54.76 157,55.16C156.47,55.56 155.86,55.86 155.17,56.04C154.49,56.22 153.76,56.31 152.99,56.31L150.27,56.31ZM151.49,55.38L152.83,55.38C153.4,55.38 153.95,55.32 154.49,55.19C155.03,55.06 155.51,54.85 155.95,54.54C156.39,54.23 156.73,53.8 156.99,53.25C157.25,52.7 157.38,51.99 157.38,51.15C157.38,49.94 157,49 156.25,48.34C155.5,47.68 154.5,47.35 153.27,47.35L151.49,47.35L151.49,55.39L151.49,55.38Z" style="fill-rule:nonzero;"/>
        </g>
        <g transform="matrix(0.744059,0,0,0.744059,11.974258,31.483089)">
            <path d="M161.46,47.03C161.25,47.03 161.05,46.96 160.89,46.83C160.73,46.69 160.64,46.52 160.64,46.3C160.64,46.08 160.72,45.88 160.88,45.74C161.04,45.6 161.22,45.53 161.44,45.53C161.66,45.53 161.84,45.6 162,45.73C162.16,45.87 162.24,46.05 162.24,46.3C162.24,46.52 162.16,46.7 162,46.83C161.84,46.97 161.66,47.03 161.46,47.03ZM160.85,56.31L160.85,48.93L162.04,48.93L162.04,56.31L160.85,56.31Z" style="fill-rule:nonzero;"/>
        </g>
        <g transform="matrix(0.744059,0,0,0.744059,11.974258,31.483089)">
            <path d="M167.76,56.43C167.06,56.43 166.43,56.29 165.87,56.01C165.31,55.73 164.87,55.31 164.55,54.75C164.23,54.19 164.07,53.51 164.07,52.7C164.07,51.89 164.24,51.17 164.57,50.6C164.9,50.03 165.36,49.58 165.93,49.28C166.5,48.98 167.14,48.82 167.84,48.82C168.54,48.82 169.17,48.96 169.73,49.24C170.28,49.52 170.72,49.94 171.05,50.49C171.37,51.04 171.53,51.72 171.53,52.54C171.53,53.36 171.36,54.07 171.04,54.65C170.71,55.23 170.26,55.67 169.7,55.98C169.13,56.28 168.49,56.44 167.78,56.44L167.76,56.43ZM167.81,55.57C168.24,55.57 168.64,55.48 169.02,55.29C169.39,55.11 169.7,54.8 169.93,54.36C170.16,53.93 170.28,53.34 170.28,52.61C170.28,51.92 170.16,51.36 169.92,50.92C169.68,50.49 169.37,50.17 168.99,49.97C168.61,49.77 168.21,49.67 167.78,49.67C167.35,49.67 166.96,49.76 166.58,49.95C166.2,50.14 165.89,50.45 165.65,50.88C165.41,51.31 165.29,51.88 165.29,52.61C165.29,53.34 165.41,53.88 165.66,54.31C165.9,54.74 166.22,55.06 166.6,55.26C166.98,55.46 167.39,55.56 167.81,55.56L167.81,55.57Z" style="fill-rule:nonzero;"/>
        </g>
        <g transform="matrix(0.744059,0,0,0.744059,11.974258,31.483089)">
            <path d="M175.4,56.43C174.89,56.43 174.42,56.39 174,56.31C173.58,56.23 173.2,56.12 172.89,55.99L173.18,55.13C173.5,55.27 173.83,55.37 174.18,55.45C174.53,55.53 174.91,55.57 175.32,55.57C175.89,55.57 176.34,55.47 176.67,55.27C177,55.07 177.17,54.77 177.17,54.36C177.17,54.03 177.04,53.76 176.78,53.57C176.52,53.38 176.11,53.2 175.54,53.04L175.01,52.88C174.31,52.67 173.78,52.4 173.44,52.07C173.09,51.74 172.92,51.34 172.92,50.85C172.92,50.23 173.18,49.74 173.7,49.37C174.22,49 174.88,48.81 175.69,48.81C176.06,48.81 176.45,48.84 176.86,48.9C177.27,48.96 177.65,49.07 178,49.21L177.73,50.06C177.39,49.91 177.07,49.81 176.77,49.75C176.47,49.69 176.16,49.66 175.83,49.66C175.26,49.66 174.84,49.76 174.55,49.97C174.26,50.18 174.12,50.45 174.12,50.79C174.12,51.08 174.23,51.32 174.45,51.49C174.67,51.66 175.09,51.84 175.72,52.02L176.23,52.16C176.93,52.35 177.46,52.61 177.83,52.95C178.19,53.29 178.37,53.73 178.37,54.26C178.37,54.89 178.12,55.4 177.61,55.81C177.1,56.21 176.37,56.41 175.42,56.41L175.4,56.43Z" style="fill-rule:nonzero;"/>
        </g>
        <g transform="matrix(0.744059,0,0,0.744059,11.974258,31.483089)">
            <path d="M185.98,58.38C185.56,57.84 185.16,57.25 184.77,56.63C184.39,56.01 184.07,55.32 183.83,54.57C183.59,53.82 183.46,52.99 183.46,52.09C183.46,51.19 183.58,50.35 183.83,49.58C184.08,48.81 184.4,48.1 184.79,47.46C185.18,46.82 185.59,46.27 186,45.8L186.7,46.24C186.08,47.07 185.57,47.96 185.19,48.92C184.81,49.88 184.61,50.94 184.61,52.1C184.61,53.26 184.79,54.27 185.15,55.19C185.51,56.11 186.02,57.05 186.7,58.02L185.97,58.4L185.98,58.38Z" style="fill-rule:nonzero;"/>
        </g>
        <g transform="matrix(0.744059,0,0,0.744059,11.974258,31.483089)">
            <rect x="188.7" y="46.42" width="1.22" height="9.89" style="fill-rule:nonzero;"/>
        </g>
        <g transform="matrix(0.744059,0,0,0.744059,11.974258,31.483089)">
            <path d="M194.48,56.43C193.97,56.43 193.5,56.39 193.08,56.31C192.66,56.23 192.28,56.12 191.97,55.99L192.26,55.13C192.58,55.27 192.91,55.37 193.26,55.45C193.61,55.53 193.99,55.57 194.4,55.57C194.97,55.57 195.42,55.47 195.75,55.27C196.08,55.07 196.25,54.77 196.25,54.36C196.25,54.03 196.12,53.76 195.86,53.57C195.6,53.38 195.19,53.2 194.62,53.04L194.09,52.88C193.39,52.67 192.86,52.4 192.52,52.07C192.17,51.74 192,51.34 192,50.85C192,50.23 192.26,49.74 192.78,49.37C193.3,49 193.96,48.81 194.77,48.81C195.14,48.81 195.53,48.84 195.94,48.9C196.35,48.96 196.73,49.07 197.08,49.21L196.81,50.06C196.47,49.91 196.15,49.81 195.85,49.75C195.55,49.69 195.24,49.66 194.91,49.66C194.34,49.66 193.92,49.76 193.63,49.97C193.34,50.18 193.2,50.45 193.2,50.79C193.2,51.08 193.31,51.32 193.53,51.49C193.75,51.66 194.17,51.84 194.8,52.02L195.31,52.16C196.01,52.35 196.54,52.61 196.91,52.95C197.27,53.29 197.45,53.73 197.45,54.26C197.45,54.89 197.2,55.4 196.69,55.81C196.18,56.21 195.45,56.41 194.5,56.41L194.48,56.43Z" style="fill-rule:nonzero;"/>
        </g>
        <g transform="matrix(0.744059,0,0,0.744059,11.974258,31.483089)">
            <path d="M199.28,56.31L199.28,48.93L200.13,48.93L200.37,50.41C200.56,49.95 200.88,49.57 201.34,49.27C201.79,48.97 202.31,48.82 202.89,48.82C203.17,48.82 203.41,48.84 203.61,48.89C203.81,48.94 203.98,48.99 204.11,49.04L203.87,50C203.73,49.95 203.58,49.9 203.42,49.86C203.25,49.82 203.06,49.8 202.83,49.8C202.18,49.8 201.63,50.01 201.16,50.44C200.7,50.86 200.46,51.5 200.46,52.35L200.46,56.32L199.27,56.32L199.28,56.31Z" style="fill-rule:nonzero;"/>
        </g>
        <g transform="matrix(0.744059,0,0,0.744059,12.718318,31.483089)">
            <path d="M207.25,56.43C206.49,56.43 205.86,56.24 205.36,55.85C204.86,55.46 204.61,54.94 204.61,54.3C204.61,53.53 204.94,52.94 205.59,52.55C206.24,52.16 207.1,51.96 208.16,51.96L209.77,51.96L209.77,51.39C209.77,50.77 209.61,50.34 209.29,50.09C208.97,49.84 208.55,49.71 208.03,49.71C207.72,49.71 207.37,49.76 206.96,49.85C206.55,49.94 206.1,50.12 205.62,50.37L205.16,49.57C205.69,49.31 206.18,49.12 206.64,49C207.09,48.88 207.59,48.82 208.14,48.82C208.69,48.82 209.17,48.9 209.59,49.07C210.01,49.24 210.35,49.52 210.6,49.91C210.85,50.3 210.97,50.83 210.97,51.5L210.97,56.3L210.04,56.3L209.85,55.41L209.82,55.41C209.49,55.77 209.11,56.02 208.67,56.19C208.23,56.35 207.75,56.43 207.23,56.43L207.25,56.43ZM207.54,55.6C207.92,55.6 208.33,55.51 208.75,55.32C209.17,55.14 209.52,54.85 209.8,54.46L209.8,52.73L208.46,52.76C207.53,52.78 206.87,52.93 206.46,53.21C206.06,53.49 205.86,53.83 205.86,54.24C205.86,54.73 206.03,55.08 206.36,55.28C206.69,55.48 207.09,55.59 207.54,55.59L207.54,55.6Z" style="fill-rule:nonzero;"/>
        </g>
        <g transform="matrix(0.744059,0,0,0.744059,11.974258,31.483089)">
            <path d="M216.78,56.43C216.04,56.43 215.37,56.3 214.76,56.04C214.15,55.78 213.66,55.37 213.3,54.81C212.94,54.25 212.76,53.53 212.76,52.64C212.76,51.87 212.92,51.19 213.23,50.62C213.54,50.05 213.98,49.61 214.54,49.29C215.1,48.97 215.75,48.82 216.5,48.82C217.15,48.82 217.71,48.96 218.19,49.23C218.67,49.5 219.05,49.88 219.31,50.36C219.58,50.84 219.71,51.41 219.71,52.05L219.71,52.69L214,52.69L214,52.83C214,53.69 214.25,54.36 214.76,54.84C215.27,55.32 215.96,55.56 216.83,55.56C217.23,55.56 217.6,55.53 217.94,55.47C218.28,55.41 218.63,55.32 218.98,55.18L219.23,56.01C218.92,56.13 218.55,56.23 218.12,56.31C217.69,56.39 217.23,56.42 216.77,56.42L216.78,56.43ZM214.03,51.88L218.46,51.86C218.46,51.47 218.39,51.11 218.26,50.78C218.12,50.45 217.91,50.17 217.61,49.96C217.31,49.75 216.92,49.65 216.43,49.65C215.77,49.65 215.23,49.85 214.81,50.25C214.39,50.65 214.13,51.19 214.04,51.87L214.03,51.88Z" style="fill-rule:nonzero;"/>
        </g>
        <g transform="matrix(0.744059,0,0,0.744059,11.974258,31.483089)">
            <rect x="221.65" y="45.17" width="1.17" height="11.14" style="fill-rule:nonzero;"/>
        </g>
        <g transform="matrix(0.744059,0,0,0.744059,11.974258,31.483089)">
            <path d="M226.1,47.03C225.89,47.03 225.69,46.96 225.53,46.83C225.37,46.69 225.28,46.52 225.28,46.3C225.28,46.08 225.36,45.88 225.52,45.74C225.68,45.6 225.86,45.53 226.08,45.53C226.3,45.53 226.48,45.6 226.64,45.73C226.8,45.87 226.88,46.05 226.88,46.3C226.88,46.52 226.8,46.7 226.64,46.83C226.48,46.97 226.3,47.03 226.1,47.03ZM225.49,56.31L225.49,48.93L226.68,48.93L226.68,56.31L225.49,56.31Z" style="fill-rule:nonzero;"/>
        </g>
        <g transform="matrix(0.744059,0,0,0.744059,11.974258,31.483089)">
            <path d="M231.84,56.31C230.39,56.31 229.67,55.7 229.67,54.47L229.67,49.76L228.34,49.76L228.34,48.93L229.67,48.93L229.67,46.58L230.84,46.58L230.84,48.93L233.35,48.93L233.35,49.76L230.84,49.76L230.84,54.31C230.84,54.74 230.95,55.03 231.17,55.18C231.39,55.33 231.68,55.41 232.05,55.41C232.33,55.41 232.61,55.38 232.89,55.33C233.17,55.28 233.4,55.22 233.59,55.16L233.78,55.99C233.55,56.06 233.27,56.13 232.94,56.2C232.61,56.27 232.24,56.3 231.84,56.3L231.84,56.31Z" style="fill-rule:nonzero;"/>
        </g>
        <g transform="matrix(0.744059,0,0,0.744059,11.974258,31.483089)">
            <path d="M237.38,56.43C236.62,56.43 235.99,56.24 235.49,55.85C234.99,55.46 234.74,54.94 234.74,54.3C234.74,53.53 235.07,52.94 235.72,52.55C236.37,52.16 237.23,51.96 238.29,51.96L239.9,51.96L239.9,51.39C239.9,50.77 239.74,50.34 239.42,50.09C239.1,49.84 238.68,49.71 238.16,49.71C237.85,49.71 237.5,49.76 237.09,49.85C236.68,49.94 236.23,50.12 235.75,50.37L235.29,49.57C235.82,49.31 236.31,49.12 236.77,49C237.22,48.88 237.72,48.82 238.27,48.82C238.82,48.82 239.3,48.9 239.72,49.07C240.14,49.24 240.48,49.52 240.73,49.91C240.98,50.3 241.1,50.83 241.1,51.5L241.1,56.3L240.17,56.3L239.98,55.41L239.95,55.41C239.62,55.77 239.24,56.02 238.8,56.19C238.36,56.35 237.88,56.43 237.36,56.43L237.38,56.43ZM237.67,55.6C238.05,55.6 238.46,55.51 238.88,55.32C239.3,55.14 239.65,54.85 239.93,54.46L239.93,52.73L238.59,52.76C237.66,52.78 237,52.93 236.59,53.21C236.19,53.49 235.99,53.83 235.99,54.24C235.99,54.73 236.16,55.08 236.49,55.28C236.82,55.48 237.22,55.59 237.67,55.59L237.67,55.6Z" style="fill-rule:nonzero;"/>
        </g>
        <g transform="matrix(0.744059,0,0,0.744059,11.974258,31.483089)">
            <path d="M243.5,58.38L242.82,57.94C243.44,57.1 243.95,56.21 244.33,55.26C244.71,54.31 244.91,53.25 244.91,52.09C244.91,51.32 244.83,50.6 244.67,49.96C244.51,49.31 244.28,48.68 243.97,48.07C243.66,47.46 243.27,46.83 242.81,46.19L243.54,45.8C243.97,46.32 244.37,46.9 244.75,47.53C245.13,48.16 245.44,48.86 245.68,49.61C245.92,50.36 246.05,51.19 246.05,52.09C246.05,52.99 245.93,53.81 245.68,54.59C245.43,55.37 245.11,56.08 244.73,56.72C244.34,57.36 243.94,57.91 243.51,58.38L243.5,58.38Z" style="fill-rule:nonzero;"/>
        </g>
    </g>
    <g transform="matrix(1,0,0,1,-4,0)">
        <g transform="matrix(1,0,0,1,-2,6)">
            <path d="M23.5,49.13L23.82,14.78L28.21,14.81L27.9,49.16L23.5,49.13Z" style="fill:rgb(7,98,229);fill-rule:nonzero;"/>
        </g>
        <g transform="matrix(1,0,0,1,-2,6)">
            <path d="M30.94,49.16L31.25,20.81L35.32,20.81L35.01,48.87C35.01,49.03 34.88,49.16 34.72,49.16L30.94,49.16Z" style="fill:rgb(7,98,229);fill-rule:nonzero;"/>
        </g>
        <g transform="matrix(1,0,0,1,-2,6)">
            <path d="M16.51,48.94L16.82,8.69L20.9,8.6L20.58,48.85L16.51,48.94Z" style="fill:rgb(7,98,229);fill-rule:nonzero;"/>
        </g>
        <g transform="matrix(1,0,0,1,-2,6)">
            <rect x="38.59" y="37.13" width="4.07" height="33.55" style="fill:rgb(7,98,229);"/>
        </g>
        <g transform="matrix(1,0,0,1,-2,6)">
            <path d="M57.75,49.16L58.06,14.31L53.85,14.31L53.37,49.16L57.75,49.16Z" style="fill:rgb(7,98,229);fill-rule:nonzero;"/>
        </g>
        <g transform="matrix(1,0,0,1,-2,6)">
            <path d="M49.88,48.85L50.19,20.81L46.04,20.81L45.81,48.85L49.88,48.85Z" style="fill:rgb(7,98,229);fill-rule:nonzero;"/>
        </g>
        <g transform="matrix(1,0,0,1,-2,6)">
            <path d="M64.74,49.39L65.23,8.69L60.99,8.59L60.67,49.34L64.74,49.39Z" style="fill:rgb(7,98,229);fill-rule:nonzero;"/>
        </g>
        <g transform="matrix(1,0,0,1,-2,6)">
            <path d="M40.42,74.49C40.27,74.49 40.12,74.48 39.97,74.45C39.75,74.41 39.5,74.33 39.24,74.17L39.22,74.17L39.16,74.12C39.09,74.07 39.02,74.02 38.95,73.96L38.77,73.82C38.55,73.65 33.26,69.56 27.87,64.55C16.51,53.98 16.51,50.13 16.51,48.86L20.58,48.86C20.58,52.89 32.01,63.58 40.57,70.28C47.81,65.37 60.67,53.96 60.67,49.35L64.74,49.35C64.74,52.68 61.7,57.19 55.44,63.15C50.94,67.44 45.43,71.75 42.31,73.79C41.86,74.08 41.22,74.51 40.41,74.51L40.42,74.49Z" style="fill:rgb(7,98,229);fill-rule:nonzero;"/>
        </g>
        <g transform="matrix(1,0,0,1,-2,6)">
            <path d="M39.16,66.44L38.68,65.41C37.7,64.68 34.63,62.34 31.51,59.58C24.41,53.29 23.5,50.54 23.5,48.85L27.88,48.85C27.88,48.93 27.96,50.79 34.5,56.59C36.77,58.6 39.06,60.41 40.43,61.47C42.26,60.26 45.31,58.04 48.09,55.59C52.25,51.91 53.35,49.82 53.35,49.17L57.73,49.17C57.73,54.63 45.57,63.06 42.67,64.99L42.71,65.67L39.14,66.45L39.16,66.44ZM42.39,63.13C42.45,63.25 42.51,63.37 42.54,63.49C42.5,63.37 42.45,63.25 42.39,63.13Z" style="fill:rgb(7,98,229);fill-rule:nonzero;"/>
        </g>
        <g transform="matrix(1,0,0,1,-2,6)">
            <path d="M40.57,58.35C40.31,58.35 40.04,58.3 39.78,58.21C37.08,57.21 30.94,52.64 30.94,48.85L35.01,48.85C35.01,49.98 37.92,52.84 40.23,54.17C43.41,52.11 45.8,49.68 45.8,48.85L49.87,48.85C49.87,52.28 44.5,56.05 42.3,57.45C42.17,57.65 42,57.82 41.79,57.97C41.43,58.22 41,58.35 40.56,58.35L40.57,58.35Z" style="fill:rgb(7,98,229);fill-rule:nonzero;"/>
        </g>
    </g>
</svg>
